<svg version="1" xmlns="http://www.w3.org/2000/svg" width="1544" height="1544" viewBox="0 0 1158.000000 1158.000000"><path d="M377 54.1c-45.6 4.3-90.2 20-129.3 45.6-29.9 19.7-60.2 49.9-80 80-59.2 89.9-62.2 206.3-7.7 298.4l7.2 12.1-1.6 8.6c-4.2 24-6.4 46.8-6.8 70.1l-.2 15.5-6.9 7.5c-33.5 36.9-57.4 84.5-67.2 133.6-4.1 20.6-5 31.6-4.9 57.5.1 28.3 1.9 43.1 8.4 68.4 26.2 102.3 108.4 182.1 211.2 205 22.3 5 33.4 6 61.8 6.1 27.6 0 34.7-.6 56.5-5 32.2-6.5 65.9-20 93.8-37.6l9.9-6.2 15.6 2.2c20.3 2.7 36.2 4.1 48.7 4.1l10 .1 10.5 9.5c45.8 41.7 99 65.9 160 72.9 18 2.1 55.7 1.6 72-1 51-8 95.8-27.5 135.3-58.7 12.7-10.1 33.9-31.2 43.9-43.8 31.3-39.3 50.8-83.6 58.9-133.6 2.6-16.4 3.7-52.7 2-69.6-4.2-43.2-17.9-84.7-39.6-119.7l-5.4-8.7 2.4-13.5c3.7-21.4 7.7-66.9 5.9-66.9-.5 0-5.5-.7-11.2-1.5-92.4-13.1-163.4-83.4-177.9-176-2.4-15-2.4-45 0-60 5-31.8 16.2-60.4 34.3-87.2l8.6-12.7-3.4-2.9c-64.1-54.5-130.9-87-209.3-102.1-20.9-4-54.4-7.5-72-7.6l-6-.1-10-9.1C559.8 96.2 519.3 74 475.8 62.5c-31.7-8.3-67-11.3-98.8-8.4zm60.8 25.4c46.4 6.8 87.7 24.1 123.6 51.9l7.9 6.1-4.4.6c-2.4.4-9.6 1.2-15.9 1.9-65.5 6.9-133.9 31.7-191.5 69.5-45.4 29.8-88.6 72-119.8 116.7-24.4 35-44.3 74.9-57.7 115.8l-4.8 14.5-5-10.5c-27.2-57.8-32.3-122.1-14.5-183.5 13.7-47.3 43-92.3 80.8-124.2 40-33.7 90.1-54.8 143.5-60.3 11.8-1.2 45.4-.4 57.8 1.5zm189.7 69c23.3 1.1 51.4 5.5 78 12.1 15.8 4 47.1 14 48 15.4.5.8-49.1 132.3-54.5 144.5-.9 2.2-7.7 19.7-15 39-7.4 19.2-13.5 35.2-13.6 35.3-.1.2-2.8-.5-5.8-1.7-14.4-5.4-36.6-9.6-55.9-10.7-23.8-1.3-54.7 3.6-77.3 12.3-.7.3-3-4.2-5.8-11.4-12.8-33-27.1-70.1-50.7-131.8-14.3-37.4-26.6-69.7-27.4-71.8-1.8-4.4-3.5-3.4 18.9-10.8 36.4-12 74.6-19 114.1-20.9 15.6-.7 22.4-.6 47 .5zm-4.4 247c14.1 1.8 25 4.5 41.7 10.1 15 5.1 21.5 8.1 33.6 15.6 32.9 20.4 59.8 52.5 74.1 88.3 7.7 19.4 12.5 45.5 12.5 69.3 0 27-6.5 53.9-19.5 80.8C735.1 722.3 670 762.9 600 763c-31.5 0-57-6.4-85.9-21.6-27.3-14.3-53.5-38.6-69.6-64.5-25-40.3-34.5-89.8-25.6-133.4 2.3-11.2 9.9-33.1 15.6-45 17.2-35.8 47.1-66.2 82.9-84.2 32.6-16.4 71.7-23.4 105.7-18.8zM269.3 452c109 41.8 146.2 56.2 146.6 56.6.2.2-1.2 5.7-3.2 12.1-6.4 20.9-8.7 36.2-8.7 58 0 22.2 4.3 47.8 10.8 65.1l2 5.1-4.2 1.4c-2.2.9-19.4 7.4-38.1 14.7-58.4 22.5-166.8 64.1-172.2 66l-5.1 1.8-5.6-16.6c-16.4-49.4-23.6-97.3-22.3-147.7 1-36.1 4.5-62 12.8-95 5.4-21.6 14.3-48.5 16-48.5.5 0 32.5 12.1 71.2 27zm599.6 33.4c29.6 54 86.4 95.5 146.1 106.6 6.3 1.2 12.6 2.4 13.9 2.6 2.4.5 2.4.5 1.7 10.7-1.7 26.5-5.9 53.1-12.2 78.2-3.3 13.2-13.5 45.6-15.2 48.1-.5.8-22.4-7.1-71.2-25.7-38.8-14.8-71.8-27.6-73.5-28.3-1.6-.8-15.4-6.1-30.5-11.9-47.3-18.1-44.2-16.7-43.5-18.6 3-7.6 7.7-25.9 9.4-36.1 5.7-34.9 3.1-62.6-9.5-101-.4-1.2 7.4-4.5 34.8-14.9 19.4-7.4 37.1-14.3 39.3-15.3 2.2-1 4.5-1.8 5.2-1.8.6 0 2.9 3.3 5.2 7.4zM162.1 635.3c6.4 50.2 20.3 95.3 43.5 141.7 47.1 93.9 126.3 168 223.1 208.9 15.3 6.5 38.8 14.8 49.8 17.6 3.9 1 7.3 2.1 7.8 2.5 1 .9-22.1 11.9-35.6 17-43 16.1-92.6 20.2-138 11.4-68.6-13.3-128.6-53.3-166.8-111.2-21.2-32.1-34.3-66.6-40.6-107.2-2.4-15.5-2.4-53.6 0-69.3 5.5-35.7 16.7-68 33.4-96.3 7.3-12.3 20.3-30.7 21.1-29.9.3.2 1.3 6.9 2.3 14.8zm868.2 76.5c16.6 35.4 24.7 71.3 24.7 110.2 0 118.7-79.9 221.3-195.1 250.5-22.1 5.6-33.5 6.9-61.4 7-16.9 0-29.2-.5-35-1.3-46.5-7-85.6-23.1-121.5-50.1-11.4-8.6-11.5-8.6-8-8.9 152.9-11.8 288.9-102.2 359.1-238.6 10.7-20.9 20.1-43.2 26.5-63.3 2.7-8.4 5.2-15.3 5.5-15.3.3 0 2.7 4.4 5.2 9.8zm-470.7 59.1c15 3 25.4 4.1 40.9 4.1 21.3 0 38.2-2.7 59.2-9.2 5.7-1.7 10.5-2.9 10.7-2.7.8.9 83.6 216.7 83.6 217.9 0 1.3-34.2 12.3-50.5 16.3-80.6 19.8-165.1 16-243.7-10.9-7.3-2.5-13.4-4.7-13.5-4.8-.4-.3 18.3-49.2 69.1-181.2l14.7-38.1 9.8 3.3c5.4 1.8 14.3 4.1 19.7 5.3z"/></svg>